<svg width="974" height="689" viewBox="0 0 974 689" fill="none" xmlns="http://www.w3.org/2000/svg">
<line x1="32.5" y1="153" x2="32.5" y2="689" stroke="#BFBFBF" stroke-width="3"/>
<line x1="91.5" y1="209" x2="91.5" y2="689" stroke="#BFBFBF"/>
<line x1="111.5" y1="209" x2="111.5" y2="689" stroke="#BFBFBF"/>
<line x1="171.5" y1="209" x2="171.5" y2="689" stroke="#BFBFBF"/>
<line x1="191.5" y1="209" x2="191.5" y2="689" stroke="#BFBFBF"/>
<line x1="251.5" y1="209" x2="251.5" y2="689" stroke="#BFBFBF"/>
<line x1="272.5" y1="153" x2="272.5" y2="689" stroke="#BFBFBF" stroke-width="3"/>
<line x1="332.5" y1="209" x2="332.5" y2="689" stroke="#BFBFBF" stroke-width="3"/>
<line x1="351.5" y1="209" x2="351.5" y2="689" stroke="#BFBFBF"/>
<line x1="412.5" y1="37" x2="412.5" y2="689" stroke="#BFBFBF" stroke-width="3"/>
<line x1="432.5" y1="37" x2="432.5" y2="621" stroke="#BFBFBF" stroke-width="3"/>
<line x1="491.5" y1="37" x2="491.5" y2="621" stroke="#BFBFBF"/>
<line x1="511.5" y1="37" x2="511.5" y2="621" stroke="#BFBFBF"/>
<line x1="571.5" y1="37" x2="571.5" y2="621" stroke="#BFBFBF"/>
<line x1="591.5" y1="37" x2="591.5" y2="621" stroke="#BFBFBF"/>
<line x1="651.5" y1="37" x2="651.5" y2="621" stroke="#BFBFBF"/>
<line x1="671.5" y1="37" x2="671.5" y2="621" stroke="#BFBFBF"/>
<line x1="731.5" y1="37" x2="731.5" y2="621" stroke="#BFBFBF"/>
<line x1="751.5" y1="37" x2="751.5" y2="621" stroke="#BFBFBF"/>
<line x1="811.5" y1="37" x2="811.5" y2="621" stroke="#BFBFBF"/>
<line x1="831.5" y1="37" x2="831.5" y2="621" stroke="#BFBFBF"/>
<line x1="891.5" y1="37" x2="891.5" y2="621" stroke="#BFBFBF"/>
<line x1="911.5" y1="37" x2="911.5" y2="621" stroke="#BFBFBF"/>
<line x1="972.5" y1="37" x2="972.5" y2="689" stroke="#BFBFBF" stroke-width="3"/>
<path d="M291 159.728C291 160.083 290.944 160.423 290.832 160.75C290.739 161.049 290.613 161.319 290.454 161.562C290.305 161.814 290.062 162.183 289.726 162.668L287.43 166H286.142L288.494 162.612C288.27 162.696 288.009 162.738 287.71 162.738C286.898 162.738 286.193 162.444 285.596 161.856C284.999 161.268 284.7 160.554 284.7 159.714C284.7 158.837 285.008 158.099 285.624 157.502C286.24 156.905 286.987 156.606 287.864 156.606C288.732 156.606 289.469 156.909 290.076 157.516C290.692 158.113 291 158.851 291 159.728ZM289.922 159.7C289.922 159.103 289.726 158.603 289.334 158.202C288.942 157.801 288.452 157.6 287.864 157.6C287.276 157.6 286.781 157.801 286.38 158.202C285.979 158.603 285.778 159.103 285.778 159.7C285.778 160.288 285.979 160.787 286.38 161.198C286.781 161.609 287.276 161.814 287.864 161.814C288.452 161.814 288.942 161.609 289.334 161.198C289.726 160.787 289.922 160.288 289.922 159.7ZM293.475 164.796C292.915 163.881 292.635 162.715 292.635 161.296C292.635 159.877 292.92 158.743 293.489 157.894C294.068 157.035 294.912 156.606 296.023 156.606C297.143 156.606 297.983 157.035 298.543 157.894C299.112 158.743 299.397 159.877 299.397 161.296C299.397 162.715 299.117 163.881 298.557 164.796C297.997 165.701 297.152 166.154 296.023 166.154C294.894 166.154 294.044 165.701 293.475 164.796ZM298.263 161.31C298.263 158.846 297.516 157.614 296.023 157.614C294.52 157.614 293.769 158.846 293.769 161.31C293.769 162.523 293.956 163.466 294.329 164.138C294.702 164.81 295.267 165.146 296.023 165.146C296.779 165.146 297.339 164.81 297.703 164.138C298.076 163.466 298.263 162.523 298.263 161.31ZM311.43 160.05C312.074 160.731 312.396 161.576 312.396 162.584C312.396 163.592 312.069 164.441 311.416 165.132C310.772 165.813 309.974 166.154 309.022 166.154C307.949 166.154 307.113 165.776 306.516 165.02V168.52H305.438V159.182H306.446V160.274C306.707 159.882 307.067 159.579 307.524 159.364C307.981 159.14 308.481 159.028 309.022 159.028C309.993 159.028 310.795 159.369 311.43 160.05ZM310.59 164.432C311.057 163.947 311.29 163.335 311.29 162.598C311.29 161.861 311.057 161.249 310.59 160.764C310.133 160.269 309.559 160.022 308.868 160.022C308.215 160.022 307.655 160.246 307.188 160.694C306.731 161.142 306.502 161.772 306.502 162.584C306.502 163.415 306.726 164.054 307.174 164.502C307.631 164.941 308.196 165.16 308.868 165.16C309.559 165.16 310.133 164.917 310.59 164.432ZM319.484 166H318.238L316.292 163.2L314.36 166H313.1L315.634 162.444L313.31 159.182H314.556L316.292 161.688L318.042 159.182H319.288L316.922 162.444L319.484 166Z" fill="black"/>
<path d="M3.76 185.612L3.76 185.206L13 185.206L13 186.298L5.048 186.298L5.678 188.314L4.74 188.58L3.76 185.612ZM3.76 180.307L3.76 179.901L13 179.901L13 180.993L5.048 180.993L5.678 183.009L4.74 183.275L3.76 180.307ZM3.76 177.901L3.76 171.727L4.082 171.727L13 176.403L13 177.593L4.74 173.197L4.74 177.901L3.76 177.901ZM11.796 170.037C10.8813 170.597 9.71467 170.877 8.296 170.877C6.87733 170.877 5.74333 170.592 4.894 170.023C4.03533 169.444 3.606 168.599 3.606 167.489C3.606 166.369 4.03533 165.529 4.894 164.969C5.74333 164.399 6.87733 164.115 8.296 164.115C9.71467 164.115 10.8813 164.395 11.796 164.955C12.7013 165.515 13.154 166.359 13.154 167.489C13.154 168.618 12.7013 169.467 11.796 170.037ZM8.31 165.249C5.846 165.249 4.614 165.995 4.614 167.489C4.614 168.991 5.846 169.743 8.31 169.743C9.52333 169.743 10.466 169.556 11.138 169.183C11.81 168.809 12.146 168.245 12.146 167.489C12.146 166.733 11.81 166.173 11.138 165.809C10.466 165.435 9.52333 165.249 8.31 165.249ZM7.05 156.005C7.73133 155.361 8.576 155.039 9.584 155.039C10.592 155.039 11.4413 155.366 12.132 156.019C12.8133 156.663 13.154 157.461 13.154 158.413C13.154 159.487 12.776 160.322 12.02 160.919L15.52 160.919L15.52 161.997L6.182 161.997L6.182 160.989L7.274 160.989C6.882 160.728 6.57866 160.369 6.364 159.911C6.14 159.454 6.028 158.955 6.028 158.413C6.028 157.443 6.36866 156.64 7.05 156.005ZM11.432 156.845C10.9467 156.379 10.3353 156.145 9.598 156.145C8.86066 156.145 8.24933 156.379 7.764 156.845C7.26933 157.303 7.022 157.877 7.022 158.567C7.022 159.221 7.246 159.781 7.694 160.247C8.142 160.705 8.772 160.933 9.584 160.933C10.4147 160.933 11.054 160.709 11.502 160.261C11.9407 159.804 12.16 159.239 12.16 158.567C12.16 157.877 11.9173 157.303 11.432 156.845ZM13 147.951L13 149.197L10.2 151.143L13 153.075L13 154.335L9.444 151.801L6.182 154.125L6.182 152.879L8.688 151.143L6.182 149.393L6.182 148.147L9.444 150.513L13 147.951Z" fill="black"/>
<path d="M441.776 10.074C441.776 10.9793 441.454 11.7213 440.81 12.3C440.175 12.8693 439.405 13.154 438.5 13.154C437.819 13.154 437.203 12.9813 436.652 12.636C436.111 12.2813 435.681 11.8147 435.364 11.236L436.134 10.69C436.797 11.6607 437.581 12.146 438.486 12.146C439.121 12.146 439.639 11.9593 440.04 11.586C440.441 11.2033 440.642 10.704 440.642 10.088C440.642 9.49067 440.437 9.024 440.026 8.688C439.625 8.352 439.051 8.184 438.304 8.184H437.394V7.862L439.816 4.768L435.994 4.768V3.76L441.538 3.76V4.082L439.088 7.232C439.835 7.30667 440.469 7.596 440.992 8.1C441.515 8.59467 441.776 9.25267 441.776 10.074ZM444.297 11.796C443.737 10.8813 443.457 9.71467 443.457 8.296C443.457 6.87733 443.742 5.74333 444.311 4.894C444.89 4.03533 445.735 3.606 446.845 3.606C447.965 3.606 448.805 4.03533 449.365 4.894C449.935 5.74333 450.219 6.87733 450.219 8.296C450.219 9.71467 449.939 10.8813 449.379 11.796C448.819 12.7013 447.975 13.154 446.845 13.154C445.716 13.154 444.867 12.7013 444.297 11.796ZM449.085 8.31C449.085 5.846 448.339 4.614 446.845 4.614C445.343 4.614 444.591 5.846 444.591 8.31C444.591 9.52333 444.778 10.466 445.151 11.138C445.525 11.81 446.089 12.146 446.845 12.146C447.601 12.146 448.161 11.81 448.525 11.138C448.899 10.466 449.085 9.52333 449.085 8.31ZM462.252 7.05C462.896 7.73133 463.218 8.576 463.218 9.584C463.218 10.592 462.892 11.4413 462.238 12.132C461.594 12.8133 460.796 13.154 459.844 13.154C458.771 13.154 457.936 12.776 457.338 12.02V15.52H456.26V6.182H457.268V7.274C457.53 6.882 457.889 6.57867 458.346 6.364C458.804 6.14 459.303 6.028 459.844 6.028C460.815 6.028 461.618 6.36867 462.252 7.05ZM461.412 11.432C461.879 10.9467 462.112 10.3353 462.112 9.598C462.112 8.86067 461.879 8.24933 461.412 7.764C460.955 7.26933 460.381 7.022 459.69 7.022C459.037 7.022 458.477 7.246 458.01 7.694C457.553 8.142 457.324 8.772 457.324 9.584C457.324 10.4147 457.548 11.054 457.996 11.502C458.454 11.9407 459.018 12.16 459.69 12.16C460.381 12.16 460.955 11.9173 461.412 11.432ZM470.307 13H469.061L467.115 10.2L465.183 13H463.923L466.457 9.444L464.133 6.182L465.379 6.182L467.115 8.688L468.865 6.182H470.111L467.745 9.444L470.307 13Z" fill="black"/>
</svg>
