<svg width="289" height="331" viewBox="0 0 289 331" fill="none" xmlns="http://www.w3.org/2000/svg">
<line x1="24" y1="81" x2="24" y2="330" stroke="#BFBFBF" stroke-width="2"/>
<line x1="44.5" y1="108" x2="44.5" y2="331" stroke="#BFBFBF"/>
<line x1="64.5" y1="108" x2="64.5" y2="331" stroke="#BFBFBF"/>
<line x1="85.5" y1="108" x2="85.5" y2="331" stroke="#BFBFBF"/>
<line x1="105.5" y1="108" x2="105.5" y2="331" stroke="#BFBFBF"/>
<line x1="126.5" y1="108" x2="126.5" y2="331" stroke="#BFBFBF"/>
<line x1="146" y1="82" x2="146" y2="331" stroke="#BFBFBF" stroke-width="2"/>
<line x1="167" y1="108" x2="167" y2="331" stroke="#BFBFBF" stroke-width="2"/>
<line x1="186.5" y1="108" x2="186.5" y2="331" stroke="#BFBFBF"/>
<line x1="208" y1="28" x2="208" y2="331" stroke="#BFBFBF" stroke-width="2"/>
<line x1="228" y1="28" x2="228" y2="300" stroke="#BFBFBF" stroke-width="2"/>
<line x1="248.5" y1="28" x2="248.5" y2="300" stroke="#BFBFBF"/>
<line x1="268.5" y1="28" x2="268.5" y2="300" stroke="#BFBFBF"/>
<line x1="288.5" y1="28" x2="288.5" y2="300" stroke="#BFBFBF"/>
<path d="M161 71.624C161 71.928 160.952 72.22 160.856 72.5C160.776 72.756 160.668 72.988 160.532 73.196C160.404 73.412 160.196 73.728 159.908 74.144L157.94 77H156.836L158.852 74.096C158.66 74.168 158.436 74.204 158.18 74.204C157.484 74.204 156.88 73.952 156.368 73.448C155.856 72.944 155.6 72.332 155.6 71.612C155.6 70.86 155.864 70.228 156.392 69.716C156.92 69.204 157.56 68.948 158.312 68.948C159.056 68.948 159.688 69.208 160.208 69.728C160.736 70.24 161 70.872 161 71.624ZM160.076 71.6C160.076 71.088 159.908 70.66 159.572 70.316C159.236 69.972 158.816 69.8 158.312 69.8C157.808 69.8 157.384 69.972 157.04 70.316C156.696 70.66 156.524 71.088 156.524 71.6C156.524 72.104 156.696 72.532 157.04 72.884C157.384 73.236 157.808 73.412 158.312 73.412C158.816 73.412 159.236 73.236 159.572 72.884C159.908 72.532 160.076 72.104 160.076 71.6ZM163.121 75.968C162.641 75.184 162.401 74.184 162.401 72.968C162.401 71.752 162.645 70.78 163.133 70.052C163.629 69.316 164.353 68.948 165.305 68.948C166.265 68.948 166.985 69.316 167.465 70.052C167.953 70.78 168.197 71.752 168.197 72.968C168.197 74.184 167.957 75.184 167.477 75.968C166.997 76.744 166.273 77.132 165.305 77.132C164.337 77.132 163.609 76.744 163.121 75.968ZM167.225 72.98C167.225 70.868 166.585 69.812 165.305 69.812C164.017 69.812 163.373 70.868 163.373 72.98C163.373 74.02 163.533 74.828 163.853 75.404C164.173 75.98 164.657 76.268 165.305 76.268C165.953 76.268 166.433 75.98 166.745 75.404C167.065 74.828 167.225 74.02 167.225 72.98ZM178.511 71.9C179.063 72.484 179.339 73.208 179.339 74.072C179.339 74.936 179.059 75.664 178.499 76.256C177.947 76.84 177.263 77.132 176.447 77.132C175.527 77.132 174.811 76.808 174.299 76.16V79.16H173.375V71.156H174.239V72.092C174.463 71.756 174.771 71.496 175.163 71.312C175.555 71.12 175.983 71.024 176.447 71.024C177.279 71.024 177.967 71.316 178.511 71.9ZM177.791 75.656C178.191 75.24 178.391 74.716 178.391 74.084C178.391 73.452 178.191 72.928 177.791 72.512C177.399 72.088 176.907 71.876 176.315 71.876C175.755 71.876 175.275 72.068 174.875 72.452C174.483 72.836 174.287 73.376 174.287 74.072C174.287 74.784 174.479 75.332 174.863 75.716C175.255 76.092 175.739 76.28 176.315 76.28C176.907 76.28 177.399 76.072 177.791 75.656ZM185.415 77H184.347L182.679 74.6L181.023 77H179.943L182.115 73.952L180.123 71.156H181.191L182.679 73.304L184.179 71.156H185.247L183.219 73.952L185.415 77Z" fill="black"/>
<path d="M3.08 91.096L3.08 90.748L11 90.748L11 91.684L4.184 91.684L4.724 93.412L3.92 93.64L3.08 91.096ZM3.08 86.5491L3.08 86.2011L11 86.2011L11 87.1371L4.184 87.1371L4.724 88.8651L3.92 89.0931L3.08 86.5491ZM3.08 84.4862L3.08 79.1942L3.356 79.1942L11 83.2022L11 84.2222L3.92 80.4542L3.92 84.4862L3.08 84.4862ZM9.968 77.7458C9.184 78.2258 8.184 78.4658 6.968 78.4658C5.752 78.4658 4.78 78.2218 4.052 77.7338C3.316 77.2378 2.948 76.5138 2.948 75.5618C2.948 74.6018 3.316 73.8818 4.052 73.4018C4.78 72.9138 5.752 72.6698 6.968 72.6698C8.184 72.6698 9.184 72.9098 9.968 73.3898C10.744 73.8698 11.132 74.5938 11.132 75.5618C11.132 76.5298 10.744 77.2578 9.968 77.7458ZM6.98 73.6418C4.868 73.6418 3.812 74.2818 3.812 75.5618C3.812 76.8498 4.868 77.4938 6.98 77.4938C8.02 77.4938 8.828 77.3338 9.404 77.0138C9.98 76.6938 10.268 76.2098 10.268 75.5618C10.268 74.9138 9.98 74.4338 9.404 74.1218C8.828 73.8018 8.02 73.6418 6.98 73.6418ZM5.9 65.719C6.484 65.167 7.208 64.891 8.072 64.891C8.936 64.891 9.664 65.171 10.256 65.731C10.84 66.283 11.132 66.967 11.132 67.783C11.132 68.703 10.808 69.419 10.16 69.931L13.16 69.931L13.16 70.855L5.156 70.855L5.156 69.991L6.092 69.991C5.756 69.767 5.496 69.459 5.312 69.067C5.12 68.675 5.024 68.247 5.024 67.783C5.024 66.951 5.316 66.263 5.9 65.719ZM9.656 66.439C9.24 66.039 8.716 65.839 8.084 65.839C7.452 65.839 6.928 66.039 6.512 66.439C6.088 66.831 5.876 67.323 5.876 67.915C5.876 68.475 6.068 68.955 6.452 69.355C6.836 69.747 7.376 69.943 8.072 69.943C8.784 69.943 9.332 69.751 9.716 69.367C10.092 68.975 10.28 68.491 10.28 67.915C10.28 67.323 10.072 66.831 9.656 66.439ZM11 58.8153L11 59.8833L8.6 61.5513L11 63.2073L11 64.2873L7.952 62.1153L5.156 64.1073L5.156 63.0393L7.304 61.5513L5.156 60.0513L5.156 58.9833L7.952 61.0113L11 58.8153Z" fill="black"/>
<path d="M216.808 8.492C216.808 9.268 216.532 9.904 215.98 10.4C215.436 10.888 214.776 11.132 214 11.132C213.416 11.132 212.888 10.984 212.416 10.688C211.952 10.384 211.584 9.984 211.312 9.488L211.972 9.02C212.54 9.852 213.212 10.268 213.988 10.268C214.532 10.268 214.976 10.108 215.32 9.788C215.664 9.46 215.836 9.032 215.836 8.504C215.836 7.992 215.66 7.592 215.308 7.304C214.964 7.016 214.472 6.872 213.832 6.872L213.052 6.872V6.596L215.128 3.944L211.852 3.944V3.08L216.604 3.08V3.356L214.504 6.056C215.144 6.12 215.688 6.368 216.136 6.8C216.584 7.224 216.808 7.788 216.808 8.492ZM218.969 9.968C218.489 9.184 218.249 8.184 218.249 6.968C218.249 5.752 218.493 4.78 218.981 4.052C219.477 3.316 220.201 2.948 221.153 2.948C222.113 2.948 222.833 3.316 223.313 4.052C223.801 4.78 224.045 5.752 224.045 6.968C224.045 8.184 223.805 9.184 223.325 9.968C222.845 10.744 222.121 11.132 221.153 11.132C220.185 11.132 219.457 10.744 218.969 9.968ZM223.073 6.98C223.073 4.868 222.433 3.812 221.153 3.812C219.865 3.812 219.221 4.868 219.221 6.98C219.221 8.02 219.381 8.828 219.701 9.404C220.021 9.98 220.505 10.268 221.153 10.268C221.801 10.268 222.281 9.98 222.593 9.404C222.913 8.828 223.073 8.02 223.073 6.98ZM234.359 5.9C234.911 6.484 235.187 7.208 235.187 8.072C235.187 8.936 234.907 9.664 234.347 10.256C233.795 10.84 233.111 11.132 232.295 11.132C231.375 11.132 230.659 10.808 230.147 10.16V13.16H229.223V5.156H230.087V6.092C230.311 5.756 230.619 5.496 231.011 5.312C231.403 5.12 231.831 5.024 232.295 5.024C233.127 5.024 233.815 5.316 234.359 5.9ZM233.639 9.656C234.039 9.24 234.239 8.716 234.239 8.084C234.239 7.452 234.039 6.928 233.639 6.512C233.247 6.088 232.755 5.876 232.163 5.876C231.603 5.876 231.123 6.068 230.723 6.452C230.331 6.836 230.135 7.376 230.135 8.072C230.135 8.784 230.327 9.332 230.711 9.716C231.103 10.092 231.587 10.28 232.163 10.28C232.755 10.28 233.247 10.072 233.639 9.656ZM241.263 11H240.195L238.527 8.6L236.871 11H235.791L237.963 7.952L235.971 5.156H237.039L238.527 7.304L240.027 5.156H241.095L239.067 7.952L241.263 11Z" fill="black"/>
</svg>
