<svg width="562" height="388" viewBox="0 0 562 388" fill="none" xmlns="http://www.w3.org/2000/svg">
<line x1="32.5" y1="92" x2="32.5" y2="385" stroke="#BFBFBF" stroke-width="3"/>
<line x1="54.5" y1="126" x2="54.5" y2="388" stroke="#BFBFBF"/>
<line x1="77.5" y1="125" x2="77.5" y2="387" stroke="#BFBFBF"/>
<line x1="100.5" y1="125" x2="100.5" y2="387" stroke="#BFBFBF"/>
<line x1="123.5" y1="125" x2="123.5" y2="387" stroke="#BFBFBF"/>
<line x1="146.5" y1="125" x2="146.5" y2="387" stroke="#BFBFBF"/>
<line x1="170.5" y1="94" x2="170.5" y2="388" stroke="#BFBFBF" stroke-width="3"/>
<line x1="193.5" y1="125" x2="193.5" y2="387" stroke="#BFBFBF" stroke-width="3"/>
<line x1="215.5" y1="125" x2="215.5" y2="387" stroke="#BFBFBF"/>
<line x1="239.5" y1="31" x2="239.5" y2="387" stroke="#BFBFBF" stroke-width="3"/>
<line x1="262.5" y1="31" x2="262.5" y2="351" stroke="#BFBFBF" stroke-width="3"/>
<line x1="284.5" y1="31" x2="284.5" y2="351" stroke="#BFBFBF"/>
<line x1="306.5" y1="31" x2="306.5" y2="351" stroke="#BFBFBF"/>
<line x1="329.5" y1="31" x2="329.5" y2="351" stroke="#BFBFBF"/>
<line x1="352.5" y1="31" x2="352.5" y2="351" stroke="#BFBFBF"/>
<line x1="375.5" y1="31" x2="375.5" y2="351" stroke="#BFBFBF"/>
<line x1="398.5" y1="31" x2="398.5" y2="351" stroke="#BFBFBF"/>
<line x1="421.5" y1="31" x2="421.5" y2="351" stroke="#BFBFBF"/>
<line x1="444.5" y1="31" x2="444.5" y2="351" stroke="#BFBFBF"/>
<line x1="467.5" y1="31" x2="467.5" y2="351" stroke="#BFBFBF"/>
<line x1="490.5" y1="31" x2="490.5" y2="351" stroke="#BFBFBF"/>
<line x1="513.5" y1="31" x2="513.5" y2="351" stroke="#BFBFBF"/>
<line x1="536.5" y1="31" x2="536.5" y2="351" stroke="#BFBFBF"/>
<line x1="560.5" y1="31" x2="560.5" y2="387" stroke="#BFBFBF" stroke-width="3"/>
<path d="M186.5 100.176C186.5 100.505 186.448 100.822 186.344 101.125C186.257 101.402 186.14 101.654 185.993 101.879C185.854 102.113 185.629 102.455 185.317 102.906L183.185 106H181.989L184.173 102.854C183.965 102.932 183.722 102.971 183.445 102.971C182.691 102.971 182.037 102.698 181.482 102.152C180.927 101.606 180.65 100.943 180.65 100.163C180.65 99.3483 180.936 98.6637 181.508 98.109C182.08 97.5543 182.773 97.277 183.588 97.277C184.394 97.277 185.079 97.5587 185.642 98.122C186.214 98.6767 186.5 99.3613 186.5 100.176ZM185.499 100.15C185.499 99.5953 185.317 99.1317 184.953 98.759C184.589 98.3863 184.134 98.2 183.588 98.2C183.042 98.2 182.583 98.3863 182.21 98.759C181.837 99.1317 181.651 99.5953 181.651 100.15C181.651 100.696 181.837 101.16 182.21 101.541C182.583 101.922 183.042 102.113 183.588 102.113C184.134 102.113 184.589 101.922 184.953 101.541C185.317 101.16 185.499 100.696 185.499 100.15ZM188.798 104.882C188.278 104.033 188.018 102.949 188.018 101.632C188.018 100.315 188.282 99.2617 188.811 98.473C189.348 97.6757 190.133 97.277 191.164 97.277C192.204 97.277 192.984 97.6757 193.504 98.473C194.033 99.2617 194.297 100.315 194.297 101.632C194.297 102.949 194.037 104.033 193.517 104.882C192.997 105.723 192.213 106.143 191.164 106.143C190.115 106.143 189.327 105.723 188.798 104.882ZM193.244 101.645C193.244 99.357 192.551 98.213 191.164 98.213C189.769 98.213 189.071 99.357 189.071 101.645C189.071 102.772 189.244 103.647 189.591 104.271C189.938 104.895 190.462 105.207 191.164 105.207C191.866 105.207 192.386 104.895 192.724 104.271C193.071 103.647 193.244 102.772 193.244 101.645ZM205.471 100.475C206.069 101.108 206.368 101.892 206.368 102.828C206.368 103.764 206.064 104.553 205.458 105.194C204.86 105.827 204.119 106.143 203.235 106.143C202.238 106.143 201.462 105.792 200.908 105.09V108.34H199.907V99.669H200.843V100.683C201.085 100.319 201.419 100.037 201.844 99.838C202.268 99.63 202.732 99.526 203.235 99.526C204.136 99.526 204.881 99.8423 205.471 100.475ZM204.691 104.544C205.124 104.093 205.341 103.526 205.341 102.841C205.341 102.156 205.124 101.589 204.691 101.138C204.266 100.679 203.733 100.449 203.092 100.449C202.485 100.449 201.965 100.657 201.532 101.073C201.107 101.489 200.895 102.074 200.895 102.828C200.895 103.599 201.103 104.193 201.519 104.609C201.943 105.016 202.468 105.22 203.092 105.22C203.733 105.22 204.266 104.995 204.691 104.544ZM212.95 106H211.793L209.986 103.4L208.192 106H207.022L209.375 102.698L207.217 99.669H208.374L209.986 101.996L211.611 99.669H212.768L210.571 102.698L212.95 106Z" fill="black"/>
<path d="M3.42 132.854L3.42 132.477L12 132.477L12 133.491L4.616 133.491L5.201 135.363L4.33 135.61L3.42 132.854ZM3.42 127.928L3.42 127.551L12 127.551L12 128.565L4.616 128.565L5.201 130.437L4.33 130.684L3.42 127.928ZM3.42 125.693L3.42 119.96L3.719 119.96L12 124.302L12 125.407L4.33 121.325L4.33 125.693L3.42 125.693ZM10.882 118.391C10.0327 118.911 8.94933 119.171 7.632 119.171C6.31467 119.171 5.26167 118.907 4.473 118.378C3.67567 117.841 3.277 117.057 3.277 116.025C3.277 114.985 3.67567 114.205 4.473 113.685C5.26167 113.157 6.31467 112.892 7.632 112.892C8.94933 112.892 10.0327 113.152 10.882 113.672C11.7227 114.192 12.143 114.977 12.143 116.025C12.143 117.074 11.7227 117.863 10.882 118.391ZM7.645 113.945C5.357 113.945 4.213 114.639 4.213 116.025C4.213 117.421 5.357 118.118 7.645 118.118C8.77167 118.118 9.647 117.945 10.271 117.598C10.895 117.252 11.207 116.727 11.207 116.025C11.207 115.323 10.895 114.803 10.271 114.465C9.647 114.119 8.77167 113.945 7.645 113.945ZM6.475 105.362C7.10767 104.764 7.892 104.465 8.828 104.465C9.764 104.465 10.5527 104.769 11.194 105.375C11.8267 105.973 12.143 106.714 12.143 107.598C12.143 108.595 11.792 109.371 11.09 109.925L14.34 109.925L14.34 110.926L5.669 110.926L5.669 109.99L6.683 109.99C6.319 109.748 6.03733 109.414 5.838 108.989C5.63 108.565 5.526 108.101 5.526 107.598C5.526 106.697 5.84233 105.952 6.475 105.362ZM10.544 106.142C10.0933 105.709 9.52567 105.492 8.841 105.492C8.15633 105.492 7.58867 105.709 7.138 106.142C6.67867 106.567 6.449 107.1 6.449 107.741C6.449 108.348 6.657 108.868 7.073 109.301C7.489 109.726 8.074 109.938 8.828 109.938C9.59933 109.938 10.193 109.73 10.609 109.314C11.0163 108.89 11.22 108.365 11.22 107.741C11.22 107.1 10.9947 106.567 10.544 106.142ZM12 97.8833L12 99.0403L9.4 100.847L12 102.641L12 103.811L8.698 101.458L5.669 103.616L5.669 102.459L7.996 100.847L5.669 99.2223L5.669 98.0653L8.698 100.262L12 97.8833Z" fill="black"/>
<path d="M251.292 9.283C251.292 10.1237 250.993 10.8127 250.395 11.35C249.806 11.8787 249.091 12.143 248.25 12.143C247.617 12.143 247.045 11.9827 246.534 11.662C246.031 11.3327 245.633 10.8993 245.338 10.362L246.053 9.855C246.668 10.7563 247.396 11.207 248.237 11.207C248.826 11.207 249.307 11.0337 249.68 10.687C250.053 10.3317 250.239 9.868 250.239 9.296C250.239 8.74133 250.048 8.308 249.667 7.996C249.294 7.684 248.761 7.528 248.068 7.528L247.223 7.528V7.229L249.472 4.356L245.923 4.356V3.42L251.071 3.42V3.719L248.796 6.644C249.489 6.71333 250.079 6.982 250.564 7.45C251.049 7.90933 251.292 8.52033 251.292 9.283ZM253.633 10.882C253.113 10.0327 252.853 8.94933 252.853 7.632C252.853 6.31467 253.117 5.26167 253.646 4.473C254.183 3.67567 254.968 3.277 255.999 3.277C257.039 3.277 257.819 3.67567 258.339 4.473C258.868 5.26167 259.132 6.31467 259.132 7.632C259.132 8.94933 258.872 10.0327 258.352 10.882C257.832 11.7227 257.048 12.143 255.999 12.143C254.95 12.143 254.162 11.7227 253.633 10.882ZM258.079 7.645C258.079 5.357 257.386 4.213 255.999 4.213C254.604 4.213 253.906 5.357 253.906 7.645C253.906 8.77167 254.079 9.647 254.426 10.271C254.773 10.895 255.297 11.207 255.999 11.207C256.701 11.207 257.221 10.895 257.559 10.271C257.906 9.647 258.079 8.77167 258.079 7.645ZM270.306 6.475C270.904 7.10767 271.203 7.892 271.203 8.828C271.203 9.764 270.899 10.5527 270.293 11.194C269.695 11.8267 268.954 12.143 268.07 12.143C267.073 12.143 266.297 11.792 265.743 11.09V14.34H264.742V5.669H265.678V6.683C265.92 6.319 266.254 6.03733 266.679 5.838C267.103 5.63 267.567 5.526 268.07 5.526C268.971 5.526 269.716 5.84233 270.306 6.475ZM269.526 10.544C269.959 10.0933 270.176 9.52567 270.176 8.841C270.176 8.15633 269.959 7.58867 269.526 7.138C269.101 6.67867 268.568 6.449 267.927 6.449C267.32 6.449 266.8 6.657 266.367 7.073C265.942 7.489 265.73 8.074 265.73 8.828C265.73 9.59933 265.938 10.193 266.354 10.609C266.778 11.0163 267.303 11.22 267.927 11.22C268.568 11.22 269.101 10.9947 269.526 10.544ZM277.785 12H276.628L274.821 9.4L273.027 12L271.857 12L274.21 8.698L272.052 5.669H273.209L274.821 7.996L276.446 5.669H277.603L275.406 8.698L277.785 12Z" fill="black"/>
</svg>
