<svg width="609" height="420" viewBox="0 0 609 420" fill="none" xmlns="http://www.w3.org/2000/svg">
<line x1="32.5" y1="97" x2="32.5" y2="417" stroke="#BFBFBF" stroke-width="3"/>
<line x1="56.5" y1="134" x2="56.5" y2="420" stroke="#BFBFBF"/>
<line x1="81.5" y1="133" x2="81.5" y2="419" stroke="#BFBFBF"/>
<line x1="106.5" y1="133" x2="106.5" y2="419" stroke="#BFBFBF"/>
<line x1="131.5" y1="133" x2="131.5" y2="419" stroke="#BFBFBF"/>
<line x1="156.5" y1="133" x2="156.5" y2="419" stroke="#BFBFBF"/>
<line x1="182.5" y1="100" x2="182.5" y2="420" stroke="#BFBFBF" stroke-width="3"/>
<line x1="207.5" y1="133" x2="207.5" y2="419" stroke="#BFBFBF" stroke-width="3"/>
<line x1="231.5" y1="133" x2="231.5" y2="419" stroke="#BFBFBF"/>
<line x1="257.5" y1="31" x2="257.5" y2="419" stroke="#BFBFBF" stroke-width="3"/>
<line x1="282.5" y1="31" x2="282.5" y2="379" stroke="#BFBFBF" stroke-width="3"/>
<line x1="306.5" y1="31" x2="306.5" y2="379" stroke="#BFBFBF"/>
<line x1="331.5" y1="31" x2="331.5" y2="379" stroke="#BFBFBF"/>
<line x1="356.5" y1="31" x2="356.5" y2="379" stroke="#BFBFBF"/>
<line x1="381.5" y1="31" x2="381.5" y2="379" stroke="#BFBFBF"/>
<line x1="406.5" y1="31" x2="406.5" y2="379" stroke="#BFBFBF"/>
<line x1="431.5" y1="31" x2="431.5" y2="379" stroke="#BFBFBF"/>
<line x1="456.5" y1="31" x2="456.5" y2="379" stroke="#BFBFBF"/>
<line x1="481.5" y1="31" x2="481.5" y2="379" stroke="#BFBFBF"/>
<line x1="506.5" y1="31" x2="506.5" y2="379" stroke="#BFBFBF"/>
<line x1="531.5" y1="31" x2="531.5" y2="379" stroke="#BFBFBF"/>
<line x1="556.5" y1="31" x2="556.5" y2="379" stroke="#BFBFBF"/>
<line x1="581.5" y1="31" x2="581.5" y2="379" stroke="#BFBFBF"/>
<line x1="607.5" y1="31" x2="607.5" y2="419" stroke="#BFBFBF" stroke-width="3"/>
<path d="M199.5 108.176C199.5 108.505 199.448 108.822 199.344 109.125C199.257 109.402 199.14 109.654 198.993 109.879C198.854 110.113 198.629 110.455 198.317 110.906L196.185 114H194.989L197.173 110.854C196.965 110.932 196.722 110.971 196.445 110.971C195.691 110.971 195.037 110.698 194.482 110.152C193.927 109.606 193.65 108.943 193.65 108.163C193.65 107.348 193.936 106.664 194.508 106.109C195.08 105.554 195.773 105.277 196.588 105.277C197.394 105.277 198.079 105.559 198.642 106.122C199.214 106.677 199.5 107.361 199.5 108.176ZM198.499 108.15C198.499 107.595 198.317 107.132 197.953 106.759C197.589 106.386 197.134 106.2 196.588 106.2C196.042 106.2 195.583 106.386 195.21 106.759C194.837 107.132 194.651 107.595 194.651 108.15C194.651 108.696 194.837 109.16 195.21 109.541C195.583 109.922 196.042 110.113 196.588 110.113C197.134 110.113 197.589 109.922 197.953 109.541C198.317 109.16 198.499 108.696 198.499 108.15ZM201.798 112.882C201.278 112.033 201.018 110.949 201.018 109.632C201.018 108.315 201.282 107.262 201.811 106.473C202.348 105.676 203.133 105.277 204.164 105.277C205.204 105.277 205.984 105.676 206.504 106.473C207.033 107.262 207.297 108.315 207.297 109.632C207.297 110.949 207.037 112.033 206.517 112.882C205.997 113.723 205.213 114.143 204.164 114.143C203.115 114.143 202.327 113.723 201.798 112.882ZM206.244 109.645C206.244 107.357 205.551 106.213 204.164 106.213C202.769 106.213 202.071 107.357 202.071 109.645C202.071 110.772 202.244 111.647 202.591 112.271C202.938 112.895 203.462 113.207 204.164 113.207C204.866 113.207 205.386 112.895 205.724 112.271C206.071 111.647 206.244 110.772 206.244 109.645ZM218.471 108.475C219.069 109.108 219.368 109.892 219.368 110.828C219.368 111.764 219.064 112.553 218.458 113.194C217.86 113.827 217.119 114.143 216.235 114.143C215.238 114.143 214.462 113.792 213.908 113.09V116.34H212.907V107.669H213.843V108.683C214.085 108.319 214.419 108.037 214.844 107.838C215.268 107.63 215.732 107.526 216.235 107.526C217.136 107.526 217.881 107.842 218.471 108.475ZM217.691 112.544C218.124 112.093 218.341 111.526 218.341 110.841C218.341 110.156 218.124 109.589 217.691 109.138C217.266 108.679 216.733 108.449 216.092 108.449C215.485 108.449 214.965 108.657 214.532 109.073C214.107 109.489 213.895 110.074 213.895 110.828C213.895 111.599 214.103 112.193 214.519 112.609C214.943 113.016 215.468 113.22 216.092 113.22C216.733 113.22 217.266 112.995 217.691 112.544ZM225.95 114H224.793L222.986 111.4L221.192 114H220.022L222.375 110.698L220.217 107.669H221.374L222.986 109.996L224.611 107.669H225.768L223.571 110.698L225.95 114Z" fill="black"/>
<path d="M3.42 132.854L3.42 132.477L12 132.477L12 133.491L4.616 133.491L5.201 135.363L4.33 135.61L3.42 132.854ZM3.42 127.928L3.42 127.551L12 127.551L12 128.565L4.616 128.565L5.201 130.437L4.33 130.684L3.42 127.928ZM3.42 125.693L3.42 119.96L3.719 119.96L12 124.302L12 125.407L4.33 121.325L4.33 125.693L3.42 125.693ZM10.882 118.391C10.0327 118.911 8.94933 119.171 7.632 119.171C6.31467 119.171 5.26167 118.907 4.473 118.378C3.67567 117.841 3.277 117.057 3.277 116.025C3.277 114.985 3.67567 114.205 4.473 113.685C5.26167 113.157 6.31467 112.892 7.632 112.892C8.94933 112.892 10.0327 113.152 10.882 113.672C11.7227 114.192 12.143 114.977 12.143 116.025C12.143 117.074 11.7227 117.863 10.882 118.391ZM7.645 113.945C5.357 113.945 4.213 114.639 4.213 116.025C4.213 117.421 5.357 118.118 7.645 118.118C8.77167 118.118 9.647 117.945 10.271 117.598C10.895 117.252 11.207 116.727 11.207 116.025C11.207 115.323 10.895 114.803 10.271 114.465C9.647 114.119 8.77167 113.945 7.645 113.945ZM6.475 105.362C7.10767 104.764 7.892 104.465 8.828 104.465C9.764 104.465 10.5527 104.769 11.194 105.375C11.8267 105.973 12.143 106.714 12.143 107.598C12.143 108.595 11.792 109.371 11.09 109.925L14.34 109.925L14.34 110.926L5.669 110.926L5.669 109.99L6.683 109.99C6.319 109.748 6.03733 109.414 5.838 108.989C5.63 108.565 5.526 108.101 5.526 107.598C5.526 106.697 5.84233 105.952 6.475 105.362ZM10.544 106.142C10.0933 105.709 9.52567 105.492 8.841 105.492C8.15633 105.492 7.58867 105.709 7.138 106.142C6.67867 106.567 6.449 107.1 6.449 107.741C6.449 108.348 6.657 108.868 7.073 109.301C7.489 109.726 8.074 109.938 8.828 109.938C9.59933 109.938 10.193 109.73 10.609 109.314C11.0163 108.89 11.22 108.365 11.22 107.741C11.22 107.1 10.9947 106.567 10.544 106.142ZM12 97.8833L12 99.0403L9.4 100.847L12 102.641L12 103.811L8.698 101.458L5.669 103.616L5.669 102.459L7.996 100.847L5.669 99.2223L5.669 98.0653L8.698 100.262L12 97.8833Z" fill="black"/>
<path d="M270.292 9.283C270.292 10.1237 269.993 10.8127 269.395 11.35C268.806 11.8787 268.091 12.143 267.25 12.143C266.617 12.143 266.045 11.9827 265.534 11.662C265.031 11.3327 264.633 10.8993 264.338 10.362L265.053 9.855C265.668 10.7563 266.396 11.207 267.237 11.207C267.826 11.207 268.307 11.0337 268.68 10.687C269.053 10.3317 269.239 9.868 269.239 9.296C269.239 8.74133 269.048 8.308 268.667 7.996C268.294 7.684 267.761 7.528 267.068 7.528L266.223 7.528V7.229L268.472 4.356L264.923 4.356V3.42L270.071 3.42V3.719L267.796 6.644C268.489 6.71333 269.079 6.982 269.564 7.45C270.049 7.90933 270.292 8.52033 270.292 9.283ZM272.633 10.882C272.113 10.0327 271.853 8.94933 271.853 7.632C271.853 6.31467 272.117 5.26167 272.646 4.473C273.183 3.67567 273.968 3.277 274.999 3.277C276.039 3.277 276.819 3.67567 277.339 4.473C277.868 5.26167 278.132 6.31467 278.132 7.632C278.132 8.94933 277.872 10.0327 277.352 10.882C276.832 11.7227 276.048 12.143 274.999 12.143C273.95 12.143 273.162 11.7227 272.633 10.882ZM277.079 7.645C277.079 5.357 276.386 4.213 274.999 4.213C273.604 4.213 272.906 5.357 272.906 7.645C272.906 8.77167 273.079 9.647 273.426 10.271C273.773 10.895 274.297 11.207 274.999 11.207C275.701 11.207 276.221 10.895 276.559 10.271C276.906 9.647 277.079 8.77167 277.079 7.645ZM289.306 6.475C289.904 7.10767 290.203 7.892 290.203 8.828C290.203 9.764 289.899 10.5527 289.293 11.194C288.695 11.8267 287.954 12.143 287.07 12.143C286.073 12.143 285.297 11.792 284.743 11.09V14.34H283.742V5.669H284.678V6.683C284.92 6.319 285.254 6.03733 285.679 5.838C286.103 5.63 286.567 5.526 287.07 5.526C287.971 5.526 288.716 5.84233 289.306 6.475ZM288.526 10.544C288.959 10.0933 289.176 9.52567 289.176 8.841C289.176 8.15633 288.959 7.58867 288.526 7.138C288.101 6.67867 287.568 6.449 286.927 6.449C286.32 6.449 285.8 6.657 285.367 7.073C284.942 7.489 284.73 8.074 284.73 8.828C284.73 9.59933 284.938 10.193 285.354 10.609C285.778 11.0163 286.303 11.22 286.927 11.22C287.568 11.22 288.101 10.9947 288.526 10.544ZM296.785 12H295.628L293.821 9.4L292.027 12L290.857 12L293.21 8.698L291.052 5.669H292.209L293.821 7.996L295.446 5.669H296.603L294.406 8.698L296.785 12Z" fill="black"/>
</svg>
